<svg xmlns="http://www.w3.org/2000/svg" width="1200" height="620" viewBox="0 0 1200 620">
<rect width="1200" height="620" fill="white"/>
<g font-family="Arial, sans-serif" fill="#111">
<text x="600" y="42" text-anchor="middle" font-size="28" font-weight="bold">Industrial Transformer Oil-Temperature Diagnosis Agent</text>
</g>
<g stroke="#111" stroke-width="2" fill="white">
<rect x="55" y="100" width="210" height="82" rx="12"/><rect x="315" y="100" width="210" height="82" rx="12"/>
<rect x="575" y="100" width="210" height="82" rx="12"/><rect x="835" y="100" width="210" height="82" rx="12"/>
<rect x="445" y="275" width="310" height="90" rx="12"/>
<rect x="160" y="455" width="230" height="80" rx="12"/><rect x="485" y="455" width="230" height="80" rx="12"/><rect x="810" y="455" width="230" height="80" rx="12"/>
</g>
<g font-family="Arial, sans-serif" fill="#111" text-anchor="middle">
<text x="160" y="133" font-size="18" font-weight="bold">96 h × 7 variables</text><text x="160" y="158" font-size="15">ETTh1 observation window</text>
<text x="420" y="133" font-size="18" font-weight="bold">Data Validation</text><text x="420" y="158" font-size="15">finite / continuity checks</text>
<text x="680" y="133" font-size="18" font-weight="bold">Anomaly Detection</text><text x="680" y="158" font-size="15">trend / rise / jump</text>
<text x="940" y="133" font-size="18" font-weight="bold">LSTM Forecast</text><text x="940" y="158" font-size="15">next 24 h OT</text>
<text x="600" y="311" font-size="21" font-weight="bold">Risk + Diagnosis Engine</text><text x="600" y="338" font-size="16">LOW / MEDIUM / HIGH · NORMAL / WARNING / ANOMALY</text>
<text x="275" y="489" font-size="18" font-weight="bold">Evidence</text><text x="275" y="514" font-size="15">key thermal indicators</text>
<text x="600" y="489" font-size="18" font-weight="bold">Diagnosis</text><text x="600" y="514" font-size="15">interpretable decision</text>
<text x="925" y="489" font-size="18" font-weight="bold">Recommendation</text><text x="925" y="514" font-size="15">monitor / inspect</text>
</g>
<g stroke="#111" stroke-width="2" fill="none" marker-end="url(#a)">
<defs><marker id="a" markerWidth="10" markerHeight="10" refX="8" refY="3" orient="auto"><path d="M0,0 L0,6 L9,3 z" fill="#111"/></marker></defs>
<path d="M265 141 L315 141"/><path d="M525 141 L575 141"/><path d="M785 141 L835 141"/>
<path d="M940 182 C940 225 760 245 700 275"/><path d="M680 182 L640 275"/><path d="M420 182 C420 230 500 250 530 275"/>
<path d="M600 365 L275 455"/><path d="M600 365 L600 455"/><path d="M600 365 L925 455"/>
</g></svg>